<svg width="107" height="94" viewBox="0 0 107 94" fill="none" xmlns="http://www.w3.org/2000/svg">
<path fill-rule="evenodd" clip-rule="evenodd" d="M20.9667 27.2226H86.0334L106.833 58.1559V93.8892H0.166748V57.8892L20.9667 27.2226ZM8.70008 66.6892V84.8225H98.3001V66.6892H73.7667C73.7667 66.6892 69.7667 80.0225 53.2334 80.0225C36.7001 80.0225 33.2334 66.6892 33.2334 66.6892H8.70008ZM10.8334 58.1559L25.7667 35.7559H81.2334L96.1667 58.1559H66.8334C66.8334 58.1559 66.0334 71.4892 53.2334 71.4892C40.4334 71.4892 40.1667 58.1559 40.1667 58.1559H10.8334Z" fill="#CFD8DC"/>
<path d="M27.9001 20.8226L34.8334 15.2226L23.9001 2.15591L17.2334 7.7559L27.9001 20.8226Z" fill="#CFD8DC"/>
<path d="M49.2334 0.555908V18.1559H57.7667V0.555908H49.2334Z" fill="#CFD8DC"/>
<path d="M72.4334 15.2226L83.1001 2.15591L89.7667 7.7559L79.1001 20.8226L72.4334 15.2226Z" fill="#CFD8DC"/>
</svg>
