<svg width="129" height="128" viewBox="0 0 129 128" fill="none" xmlns="http://www.w3.org/2000/svg">
<rect x="0.75" y="0.25" width="127.5" height="127.5" rx="63.75" fill="#E3F2FD" fill-opacity="0.6"/>
<path fill-rule="evenodd" clip-rule="evenodd" d="M29.8833 57.2166C31.4792 57.2166 32.7708 58.5208 32.7708 60.125V67.875C32.7708 85.5375 46.9792 99.8541 64.5 99.8541C82.025 99.8541 96.2292 85.5375 96.2292 67.875V60.125C96.2292 58.5166 97.5208 57.2166 99.1167 57.2166C100.708 57.2166 102 58.5208 102 60.125V67.875C102 88.75 85.2083 105.667 64.5 105.667C43.7917 105.667 27 88.75 27 67.875V60.125C27 58.5166 28.2917 57.2166 29.8833 57.2166Z" fill="#2196F3"/>
<path fill-rule="evenodd" clip-rule="evenodd" d="M64.5 22.3333C50.1625 22.3333 38.5417 34.0458 38.5417 48.5V67.875C38.5417 82.325 50.1625 94.0416 64.5 94.0416C78.8375 94.0416 90.4584 82.325 90.4584 67.875V48.5C90.4584 34.0416 78.8417 22.3333 64.5 22.3333ZM54.825 44.7916C54.2688 44.2598 53.945 43.5299 53.9239 42.7606C53.9029 41.9913 54.1863 41.2448 54.7125 40.6833L56.8084 42.6833L54.7167 40.6833L54.725 40.6708L54.7375 40.6583L54.7667 40.625C54.8465 40.5449 54.9299 40.4684 55.0167 40.3958C55.1869 40.2488 55.365 40.1111 55.55 39.9833C56.1199 39.5957 56.7305 39.2716 57.3709 39.0166C58.95 38.375 61.2459 37.8375 64.5 37.8375C67.7542 37.8375 70.05 38.375 71.6292 39.0166C72.4209 39.3375 73.0125 39.6833 73.45 39.9833C73.728 40.1758 73.9899 40.3904 74.2334 40.625L74.2625 40.6583L74.275 40.6708L74.2834 40.6791C74.2834 40.6791 74.2875 40.6833 72.2334 42.6416L74.2875 40.6833C75.3834 41.85 75.3292 43.6916 74.175 44.7958C73.6416 45.306 72.9319 45.5907 72.1938 45.5907C71.4557 45.5907 70.746 45.306 70.2125 44.7958L70.1834 44.775C69.9582 44.6276 69.718 44.5047 69.4667 44.4083C68.6667 44.0833 67.125 43.65 64.5 43.65C61.875 43.65 60.3334 44.0833 59.5334 44.4083C59.2821 44.5047 59.0418 44.6276 58.8167 44.775L58.7875 44.7958C58.2543 45.3047 57.5455 45.5887 56.8084 45.5887C56.0712 45.5887 55.3624 45.3047 54.8292 44.7958L54.825 44.7916ZM54.825 56.4208C54.2698 55.8884 53.9467 55.1587 53.9256 54.3897C53.9046 53.6208 54.1873 52.8745 54.7125 52.3125L56.8084 54.3125L54.7167 52.3125V52.3041L54.725 52.3L54.7375 52.2833L54.7667 52.2541C54.8464 52.1726 54.9298 52.0947 55.0167 52.0208C55.187 51.8752 55.3651 51.7389 55.55 51.6125C56.1199 51.2249 56.7305 50.9007 57.3709 50.6458C58.95 50.0041 61.2459 49.4666 64.5 49.4666C67.7542 49.4666 70.05 50.0041 71.6292 50.6458C72.4209 50.9666 73.0125 51.3125 73.45 51.6125C73.728 51.805 73.9899 52.0196 74.2334 52.2541L74.2625 52.2833L74.275 52.3L74.2834 52.3041V52.3083C74.2834 52.3083 74.2875 52.3125 72.2334 54.2666L74.2875 52.3125C75.3834 53.4791 75.3292 55.3208 74.175 56.4208C73.6411 56.93 72.9316 57.2141 72.1938 57.2141C71.456 57.2141 70.7465 56.93 70.2125 56.4208L70.1834 56.4041C69.9583 56.2567 69.718 56.1337 69.4667 56.0375C68.6667 55.7083 67.125 55.2791 64.5 55.2791C61.875 55.2791 60.3334 55.7125 59.5334 56.0375C59.2821 56.1337 59.0418 56.2567 58.8167 56.4041L58.7875 56.425C58.2538 56.9329 57.5452 57.2162 56.8084 57.2162C56.0715 57.2162 55.3629 56.9329 54.8292 56.425L54.825 56.4208Z" fill="#2196F3"/>
<rect x="0.75" y="0.25" width="127.5" height="127.5" rx="63.75" stroke="#2196F3" stroke-width="0.5"/>
</svg>
